<?xml version="1.0" encoding="utf-8"?>
<!-- Generator: Adobe Illustrator 20.0.0, SVG Export Plug-In . SVG Version: 6.00 Build 0)  -->
<svg version="1.1" id="Layer_1" xmlns="http://www.w3.org/2000/svg" xmlns:xlink="http://www.w3.org/1999/xlink" x="0px" y="0px"
	 viewBox="0 0 65 32" style="enable-background:new 0 0 65 32;" xml:space="preserve">
<style type="text/css">
	.st0{fill:#666666;}
	.st1{fill:#005DA6;}
</style>
<g>
	<polygon class="st0" points="34,31 34,0 33,0 33,32 65,32 65,31 	"/>
	<circle class="st0" cx="43.3" cy="16" r="3.3"/>
	<circle class="st0" cx="54" cy="13.3" r="3.3"/>
	<circle class="st0" cx="60.6" cy="10" r="2.7"/>
	<circle class="st0" cx="50" cy="20" r="2"/>
	<circle class="st0" cx="49" cy="8.7" r="1.7"/>
	<circle class="st0" cx="39.6" cy="23" r="2.3"/>
</g>
<g>
	<polygon class="st1" points="1,31 1,0 0,0 0,32 32,32 32,31 	"/>
	<circle class="st1" cx="10.3" cy="16" r="3.3"/>
	<circle class="st1" cx="21" cy="13.3" r="3.3"/>
	<circle class="st1" cx="27.6" cy="10" r="2.7"/>
	<circle class="st1" cx="17" cy="20" r="2"/>
	<circle class="st1" cx="16" cy="8.7" r="1.7"/>
	<circle class="st1" cx="6.6" cy="23" r="2.3"/>
</g>
</svg>
