<?xml version="1.0" encoding="utf-8"?>
<!-- Generator: Adobe Illustrator 20.0.0, SVG Export Plug-In . SVG Version: 6.00 Build 0)  -->
<svg version="1.1" id="Layer_1" xmlns="http://www.w3.org/2000/svg" xmlns:xlink="http://www.w3.org/1999/xlink" x="0px" y="0px"
	 viewBox="0 0 65 32" style="enable-background:new 0 0 65 32;" xml:space="preserve">
<style type="text/css">
	.st0{fill:#005DA6;}
	.st1{fill:#666666;}
</style>
<g>
	<polygon class="st0" points="28,31 28,26 22,26 22,31 19,31 19,15 13,15 13,31 10,31 10,21 4,21 4,31 1,31 1,0 0,0 0,32 32,32 
		32,31 	"/>
	<rect x="4" y="14" class="st0" width="6" height="5"/>
	<rect x="13" y="5" class="st0" width="6" height="8"/>
	<rect x="22" y="11" class="st0" width="6" height="13"/>
</g>
<g>
	<polygon class="st1" points="61,31 61,26 55,26 55,31 52,31 52,15 46,15 46,31 43,31 43,21 37,21 37,31 34,31 34,0 33,0 33,32 
		65,32 65,31 	"/>
	<rect x="37" y="14" class="st1" width="6" height="5"/>
	<rect x="46" y="5" class="st1" width="6" height="8"/>
	<rect x="55" y="11" class="st1" width="6" height="13"/>
</g>
</svg>
