<?xml version="1.0" encoding="utf-8"?>
<!-- Generator: Adobe Illustrator 20.1.0, SVG Export Plug-In . SVG Version: 6.00 Build 0)  -->
<svg version="1.1" id="Layer_1" xmlns="http://www.w3.org/2000/svg" xmlns:xlink="http://www.w3.org/1999/xlink" x="0px" y="0px"
	 viewBox="0 0 65 32" style="enable-background:new 0 0 65 32;" xml:space="preserve">
<style type="text/css">
	.st0{fill:#666666;}
	.st1{fill:#005DA6;}
</style>
<g id="geo_map_-_32px_-_merged">
	<path class="st0" d="M49,0c-8.8,0-16,7.2-16,16s7.2,16,16,16c8.8,0,16-7.2,16-16S57.8,0,49,0z M49,30c-3.6,0-6.9-1.4-9.4-3.6
		c0-0.2,0.1-0.4,0.2-0.5c0.7-1.1,0.6-2.4,0.7-3.7c0.1-0.7-0.7-1.1-1.3-1.5c-1.4-0.9-2.1-2.1-2.8-3.5c-0.5-1.1-0.8-2.3-1.3-3.4
		c0.4-2.2,1.3-4.3,2.5-6c0.1,0,0.3-0.1,0.4-0.1c0.4,0,0.9-0.2,1.2-0.6c0.4-0.4,0.8-0.6,1.4-0.6c0.9-0.1,1.2-0.9,0.7-1.6
		c-0.1-0.1-0.2-0.3-0.2-0.4C41.5,4.2,41.8,4,42,3.9c0.6,0.3,1-0.1,1.4-0.6C43.8,3,44.9,2.9,44.9,3c0,0.6-0.5,0.8-0.8,1.1
		c-0.1,0.1-0.2,0.1-0.3,0.2c-0.2,0.1-0.6,0.2-0.5,0.5c0.1,0.4,0.6,0.3,0.9,0.2c0.9-0.4,1.9-0.6,2.6-1.5c0.3-0.5,0.8-0.6,1.4-0.6
		c0.8,0,2.2-0.3,3.2-0.7c0.9,0.2,1.8,0.4,2.7,0.7c-1,0.2-2,0.6-2.7,1.3c-0.2,0.2-0.2,0.5,0,0.7c0.3,0.2,0.9-0.3,1.4-0.2
		c0.6,0.1,0.8,0.3,0.6,0.9c-0.2,0.6-0.6,1-1.3,0.9c-1-0.1-2.6,1.8-2.4,2.1c0.2,0.3,1.2,0.2,1.4,0.1c0.9-0.3,1.7-0.3,2.5,0.4
		c0.5,0.4,1,0.3,1.4-0.3c0.4-0.6,1-0.8,1.6-0.7C56.7,8.3,57,8.4,57,8.7c0,0.3-0.3,0.4-0.6,0.4c-0.3,0-0.5,0-0.8,0.1
		c-0.2,0-0.4,0.1-0.4,0.4c0,0.2,0.2,0.4,0.4,0.4c1.1,0,1.3,0.7,1.5,1.6c0.3,1.1,1,1.9,1.7,2.7c0.2,0.2,0.3,0.4,0.5,0.6
		c0.4,0.7,0.7,0.8,1.3,0.2c0.3-0.3,0.6-0.6,0.8-1c0.7-0.9-1.4-1.8-1.3-2.3c0-0.4,1.6-0.5,2.1-0.5c0.5,1.5,0.8,3,0.8,4.6
		C63,23.7,56.7,30,49,30z"/>
	<path class="st0" d="M58.2,16.1c-1.5,0.1-2-1-2.7-1.9c-0.6-0.8-1-1.8-1.8-2.4c-0.7-0.6-1.7-0.9-2.5-0.5c-0.9,0.5-1.5,0.2-2.1-0.3
		c-0.6-0.5-1.2-1-1.6-0.9c-1.8,0.2-2.9,0.7-4.1,1.7c-1.4,1.2-1.6,2.8-2.1,4.4c-0.1,0.4,0.1,0.9,0.4,1.2c1.2,1,2.3,1.8,4,1.4
		c1.3-0.4,2.3,0.4,2.7,1.7c0.1,0.3,0.3,0.5,0.4,0.8c0.3,0.6,0.6,1.2,0.5,1.8c-0.4,1.4,0.3,2.4,0.8,3.5c0.5,1.1,1.2,1.3,2.2,0.8
		c1.8-0.9,2.6-2.8,3.7-4.3c0.2-0.3,0.2-0.6,0.1-1c-0.2-0.7,0-1.4,0.4-2c0.6-0.9,1.2-1.8,1.8-2.8C58.7,16.7,58.8,16,58.2,16.1z"/>
</g>
<g id="geo_map_-_32px_-_merged_1_">
	<path class="st1" d="M16,0C7.2,0,0,7.2,0,16s7.2,16,16,16c8.8,0,16-7.2,16-16S24.8,0,16,0z M16,30c-3.6,0-6.9-1.4-9.4-3.6
		c0-0.2,0.1-0.4,0.2-0.5c0.7-1.1,0.6-2.4,0.7-3.7c0.1-0.7-0.7-1.1-1.3-1.5c-1.4-0.9-2.1-2.1-2.8-3.5c-0.5-1.1-0.8-2.3-1.3-3.4
		c0.4-2.2,1.3-4.3,2.5-6c0.1,0,0.3-0.1,0.4-0.1c0.4,0,0.9-0.2,1.2-0.6c0.4-0.4,0.8-0.6,1.4-0.6C8.6,6.2,9,5.5,8.4,4.8
		C8.3,4.6,8.2,4.5,8.2,4.4C8.5,4.2,8.8,4,9,3.9c0.6,0.3,1-0.1,1.4-0.6C10.8,3,11.9,2.9,11.9,3c0,0.6-0.5,0.8-0.8,1.1
		c-0.1,0.1-0.2,0.1-0.3,0.2c-0.2,0.1-0.6,0.2-0.5,0.5c0.1,0.4,0.6,0.3,0.9,0.2c0.9-0.4,1.9-0.6,2.6-1.5c0.3-0.5,0.8-0.6,1.4-0.6
		c0.8,0,2.2-0.3,3.2-0.7c0.9,0.2,1.8,0.4,2.7,0.7c-1,0.2-2,0.6-2.7,1.3c-0.2,0.2-0.2,0.5,0,0.7c0.3,0.2,0.9-0.3,1.4-0.2
		c0.6,0.1,0.8,0.3,0.6,0.9c-0.2,0.6-0.6,1-1.3,0.9c-1-0.1-2.6,1.8-2.4,2.1c0.2,0.3,1.2,0.2,1.4,0.1c0.9-0.3,1.7-0.3,2.5,0.4
		c0.5,0.4,1,0.3,1.4-0.3c0.4-0.6,1-0.8,1.6-0.7C23.7,8.3,24,8.4,24,8.7c0,0.3-0.3,0.4-0.6,0.4c-0.3,0-0.5,0-0.8,0.1
		c-0.2,0-0.4,0.1-0.4,0.4c0,0.2,0.2,0.4,0.4,0.4c1.1,0,1.3,0.7,1.5,1.6c0.3,1.1,1,1.9,1.7,2.7c0.2,0.2,0.3,0.4,0.5,0.6
		c0.4,0.7,0.7,0.8,1.3,0.2c0.3-0.3,0.6-0.6,0.8-1c0.7-0.9-1.4-1.8-1.3-2.3c0-0.4,1.6-0.5,2.1-0.5c0.5,1.5,0.8,3,0.8,4.6
		C30,23.7,23.7,30,16,30z"/>
	<path class="st1" d="M25.2,16.1c-1.5,0.1-2-1-2.7-1.9c-0.6-0.8-1-1.8-1.8-2.4c-0.7-0.6-1.7-0.9-2.5-0.5c-0.9,0.5-1.5,0.2-2.1-0.3
		c-0.6-0.5-1.2-1-1.6-0.9c-1.8,0.2-2.9,0.7-4.1,1.7C9,13,8.8,14.6,8.4,16.2c-0.1,0.4,0.1,0.9,0.4,1.2c1.2,1,2.3,1.8,4,1.4
		c1.3-0.4,2.3,0.4,2.7,1.7c0.1,0.3,0.3,0.5,0.4,0.8c0.3,0.6,0.6,1.2,0.5,1.8c-0.4,1.4,0.3,2.4,0.8,3.5c0.5,1.1,1.2,1.3,2.2,0.8
		c1.8-0.9,2.6-2.8,3.7-4.3c0.2-0.3,0.2-0.6,0.1-1c-0.2-0.7,0-1.4,0.4-2c0.6-0.9,1.2-1.8,1.8-2.8C25.7,16.7,25.8,16,25.2,16.1z"/>
</g>
</svg>
