<?xml version="1.0" encoding="utf-8"?>
<!-- Generator: Adobe Illustrator 19.2.1, SVG Export Plug-In . SVG Version: 6.00 Build 0)  -->
<svg version="1.1" id="Layer_1" xmlns="http://www.w3.org/2000/svg" xmlns:xlink="http://www.w3.org/1999/xlink" x="0px" y="0px"
	 viewBox="0 0 16 16" style="enable-background:new 0 0 16 16;" xml:space="preserve">
<style type="text/css">
	.st0{fill:#005DA6;}
</style>
<path class="st0" d="M0,0v16h16V0H0z M5,15H1v-2h4V15z M5,12H1v-2h4V12z M5,9H1V7h4V9z M5,6H1V4h4V6z M10,15H6v-2h4V15z M10,12H6v-2
	h4V12z M10,9H6V7h4V9z M10,6H6V4h4V6z M15,15h-4v-2h4V15z M15,12h-4v-2h4V12z M15,9h-4V7h4V9z M15,6h-4V4h4V6z"/>
</svg>
