<?xml version="1.0" encoding="utf-8"?>
<!-- Generator: Adobe Illustrator 20.0.0, SVG Export Plug-In . SVG Version: 6.00 Build 0)  -->
<svg version="1.1" id="Layer_1" xmlns="http://www.w3.org/2000/svg" xmlns:xlink="http://www.w3.org/1999/xlink" x="0px" y="0px"
	 viewBox="0 0 65 32" style="enable-background:new 0 0 65 32;" xml:space="preserve">
<style type="text/css">
	.st0{fill:#005DA6;}
	.st1{fill:#666666;}
</style>
<polygon class="st0" points="1,31 1,28 18,28 18,22 1,22 1,19 24,19 24,13 1,13 1,10 12,10 12,4 1,4 1,0 0,0 0,32 32,32 32,31 "/>
<polygon class="st1" points="34,31 34,28 51,28 51,22 34,22 34,19 57,19 57,13 34,13 34,10 45,10 45,4 34,4 34,0 33,0 33,32 65,32 
	65,31 "/>
</svg>
