<?xml version="1.0" encoding="utf-8"?>
<!-- Generator: Adobe Illustrator 20.1.0, SVG Export Plug-In . SVG Version: 6.00 Build 0)  -->
<svg version="1.1" id="Layer_1" xmlns="http://www.w3.org/2000/svg" xmlns:xlink="http://www.w3.org/1999/xlink" x="0px" y="0px"
	 width="32px" height="6px" viewBox="0 0 32 6" style="enable-background:new 0 0 32 6;" xml:space="preserve">
<style type="text/css">
	.st0{fill:#999999;}
	.st1{fill:#CCCCCC;}
	.st2{fill:#005DA6;}
</style>
<polygon class="st0" points="16,6 17,5 17,5 20.9,1 20,0 16,4 12,0 11.1,1 15,5 15,5 "/>
<polygon class="st1" points="4.9,6 5.9,5 5.9,5 9.9,1 8.9,0 4.9,4 1,0 0,1 4,5 4,5 "/>
<polygon class="st2" points="27.1,6 28,5 28,5 32,1 31,0 27.1,4 23.1,0 22.1,1 26.1,5 26.1,5 "/>
</svg>
