<?xml version="1.0" encoding="utf-8"?>
<!-- Generator: Adobe Illustrator 20.0.0, SVG Export Plug-In . SVG Version: 6.00 Build 0)  -->
<svg version="1.1" id="Layer_1" xmlns="http://www.w3.org/2000/svg" xmlns:xlink="http://www.w3.org/1999/xlink" x="0px" y="0px"
	 viewBox="0 0 65 32" style="enable-background:new 0 0 65 32;" xml:space="preserve">
<style type="text/css">
	.st0{fill:#005DA6;}
	.st1{fill:#666666;}
</style>
<polygon class="st0" points="28,31 28,14 22,14 22,31 19,31 19,8 13,8 13,31 10,31 10,20 4,20 4,31 1,31 1,0 0,0 0,32 32,32 32,31 
	"/>
<polygon class="st1" points="61,31 61,14 55,14 55,31 52,31 52,8 46,8 46,31 43,31 43,20 37,20 37,31 34,31 34,0 33,0 33,32 65,32 
	65,31 "/>
</svg>
