<?xml version="1.0" encoding="utf-8"?>
<!-- Generator: Adobe Illustrator 20.0.0, SVG Export Plug-In . SVG Version: 6.00 Build 0)  -->
<svg version="1.1" id="Layer_1" xmlns="http://www.w3.org/2000/svg" xmlns:xlink="http://www.w3.org/1999/xlink" x="0px" y="0px"
	 viewBox="0 0 65 32" style="enable-background:new 0 0 65 32;" xml:space="preserve">
<style type="text/css">
	.st0{fill:#666666;}
	.st1{fill:#005DA6;}
</style>
<path class="st0" d="M49,0c-8.8,0-16,7.2-16,16s7.2,16,16,16s16-7.2,16-16S57.8,0,49,0z M62.9,15h-6c-0.5-3.8-3.7-6.8-7.6-7V2
	C56.6,2.2,62.4,7.9,62.9,15z M42,16c0-3.9,3.1-7,7-7s7,3.1,7,7s-3.1,7-7,7S42,19.9,42,16z M35,16C35,8.5,41,2.4,48.4,2v6
	c-4.1,0.3-7.4,3.8-7.4,8c0,2.9,1.5,5.4,3.8,6.8l-3,5.2C37.8,25.6,35,21.1,35,16z M49,30c-2.3,0-4.4-0.6-6.3-1.5l3-5.2
	c1,0.5,2.1,0.7,3.3,0.7c4.4,0,8-3.6,8-8h6C63,23.7,56.7,30,49,30z"/>
<path class="st1" d="M16,0C7.2,0,0,7.2,0,16s7.2,16,16,16s16-7.2,16-16S24.8,0,16,0z M29.9,15h-6c-0.5-3.8-3.7-6.8-7.6-7V2
	C23.6,2.2,29.4,7.9,29.9,15z M9,16c0-3.9,3.1-7,7-7s7,3.1,7,7s-3.1,7-7,7S9,19.9,9,16z M2,16C2,8.5,8,2.4,15.4,2v6
	C11.3,8.4,8,11.8,8,16c0,2.9,1.5,5.4,3.8,6.8l-3,5.2C4.8,25.6,2,21.1,2,16z M16,30c-2.3,0-4.4-0.6-6.3-1.5l3-5.2
	c1,0.5,2.1,0.7,3.3,0.7c4.4,0,8-3.6,8-8h6C30,23.7,23.7,30,16,30z"/>
</svg>
