<?xml version="1.0" encoding="utf-8"?>
<!-- Generator: Adobe Illustrator 20.1.0, SVG Export Plug-In . SVG Version: 6.00 Build 0)  -->
<svg version="1.1" id="Layer_1" xmlns="http://www.w3.org/2000/svg" xmlns:xlink="http://www.w3.org/1999/xlink" x="0px" y="0px"
	 viewBox="0 0 65 32" style="enable-background:new 0 0 65 32;" xml:space="preserve">
<style type="text/css">
	.st0{fill:#005DA6;}
	.st1{fill:#666666;}
</style>
<path id="heat_grid_-_32px_-_merged" class="st0" d="M30.4,0h-4.7h-1.3h-4.7h-1.3H13h-1.3H7H5.7H0v1.3V6v1.3V12v1.3v5.3V20v4.7V26
	v4.7V32h1h4.7H7h4.7H13h5.3h1.3h4.7h1.3h4.7H32v-1.3V26v-1.3V20v-1.3v-5.3V12V7.3V6V1.3V0H30.4z M25,1v5h-5V1H25z M13,19v-6h6v6H13z
	 M13,12V7h6v5H13z M12,13v6H7v-6H12z M12,20v5H7v-5H12z M20,25v-5h5v5H20z M20,19v-6h5v6H20z M20,12V7h5v5H20z M19,1v5h-6V1H19z
	 M12,1v5H7V1H12z M1,7h5v5H1V7z M1,13h5v6H1V13z M1,20h5v5H1V20z M7,31v-5h5v5H7z M13,31v-5h6v5H13z M31,31h-5v-5h5V31z M31,25h-5
	v-5h5V25z M31,12h-5V7h5V12z"/>
<path id="heat_grid_-_32px_-_merged_1_" class="st1" d="M63.4,0h-4.7h-1.3h-4.7h-1.3H46h-1.3H40h-1.3H33v1.3V6v1.3V12v1.3v5.3V20
	v4.7V26v4.7V32h1h4.7H40h4.7H46h5.3h1.3h4.7h1.3h4.7H65v-1.3V26v-1.3V20v-1.3v-5.3V12V7.3V6V1.3V0H63.4z M58,1v5h-5V1H58z M46,19v-6
	h6v6H46z M46,12V7h6v5H46z M45,13v6h-5v-6H45z M45,20v5h-5v-5H45z M53,25v-5h5v5H53z M53,19v-6h5v6H53z M53,12V7h5v5H53z M52,1v5h-6
	V1H52z M45,1v5h-5V1H45z M34,7h5v5h-5V7z M34,13h5v6h-5V13z M34,20h5v5h-5V20z M40,31v-5h5v5H40z M46,31v-5h6v5H46z M64,31h-5v-5h5
	V31z M64,25h-5v-5h5V25z M64,12h-5V7h5V12z"/>
</svg>
