<?xml version="1.0" encoding="utf-8"?>
<!-- Generator: Adobe Illustrator 20.0.0, SVG Export Plug-In . SVG Version: 6.00 Build 0)  -->
<svg version="1.1" id="Layer_1" xmlns="http://www.w3.org/2000/svg" xmlns:xlink="http://www.w3.org/1999/xlink" x="0px" y="0px"
	 viewBox="0 0 65 32" style="enable-background:new 0 0 65 32;" xml:space="preserve">
<style type="text/css">
	.st0{fill:#666666;}
	.st1{fill:#005DA6;}
</style>
<path class="st0" d="M49,0c-8.8,0-16,7.2-16,16s7.2,16,16,16s16-7.2,16-16S57.8,0,49,0z M62.9,15H49.4V2C56.6,2.2,62.4,7.9,62.9,15z
	 M35,16C35,8.5,41,2.4,48.4,2v13v0.2l-7.2,12.4C37.5,25.1,35,20.8,35,16z M49,30c-2.5,0-4.9-0.7-6.9-1.9l7-12.1h0.3H63
	C63,23.7,56.7,30,49,30z"/>
<path class="st1" d="M16,0C7.2,0,0,7.2,0,16s7.2,16,16,16s16-7.2,16-16S24.8,0,16,0z M29.9,15H16.4V2C23.6,2.2,29.4,7.9,29.9,15z
	 M2,16C2,8.5,8,2.4,15.4,2v13v0.2L8.2,27.6C4.5,25.1,2,20.8,2,16z M16,30c-2.5,0-4.9-0.7-6.9-1.9l7-12.1h0.3H30
	C30,23.7,23.7,30,16,30z"/>
</svg>
