<?xml version="1.0" encoding="utf-8"?>
<!-- Generator: Adobe Illustrator 20.0.0, SVG Export Plug-In . SVG Version: 6.00 Build 0)  -->
<svg version="1.1" id="Layer_1" xmlns="http://www.w3.org/2000/svg" xmlns:xlink="http://www.w3.org/1999/xlink" x="0px" y="0px"
	 viewBox="0 0 65 32" style="enable-background:new 0 0 65 32;" xml:space="preserve">
<style type="text/css">
	.st0{fill:#005DA6;}
	.st1{fill:#666666;}
</style>
<path class="st0" d="M11,0v6H0v26h32V0H11z M30,18h-9v-5h9V18z M11,25h9v5h-9V25z M11,24v-5h9v5H11z M11,18v-5h9v5H11z M30,12h-9V7
	h9V12z M20,7v5h-9V7H20z M30,30h-9v-5h9V30z M21,24v-5h9v5H21z"/>
<path class="st1" d="M44,0v6H33v26h32V0H44z M63,18h-9v-5h9V18z M44,25h9v5h-9V25z M44,24v-5h9v5H44z M44,18v-5h9v5H44z M63,12h-9V7
	h9V12z M53,7v5h-9V7H53z M63,30h-9v-5h9V30z M54,24v-5h9v5H54z"/>
</svg>
