<?xml version="1.0" encoding="utf-8"?>
<!-- Generator: Adobe Illustrator 20.0.0, SVG Export Plug-In . SVG Version: 6.00 Build 0)  -->
<svg version="1.1" id="Layer_1" xmlns="http://www.w3.org/2000/svg" xmlns:xlink="http://www.w3.org/1999/xlink" x="0px" y="0px"
	 viewBox="0 0 65 32" style="enable-background:new 0 0 65 32;" xml:space="preserve">
<style type="text/css">
	.st0{fill:#666666;}
	.st1{fill:#005DA6;}
</style>
<g>
	<polygon class="st0" points="34,31 34,0 33,0 33,32 65,32 65,31 	"/>
	<circle class="st0" cx="39.2" cy="26.2" r="1.8"/>
	<circle class="st0" cx="42.1" cy="21.4" r="1.8"/>
	<circle class="st0" cx="42.1" cy="7.4" r="1.8"/>
	<circle class="st0" cx="38.1" cy="13.4" r="1.8"/>
	<circle class="st0" cx="54.1" cy="19.4" r="1.8"/>
	<circle class="st0" cx="58.1" cy="25.4" r="1.8"/>
	<circle class="st0" cx="48" cy="23.2" r="1.8"/>
	<circle class="st0" cx="51.7" cy="14.8" r="1.8"/>
	<circle class="st0" cx="51.7" cy="8.8" r="1.8"/>
	<circle class="st0" cx="58.8" cy="10.6" r="1.8"/>
	<circle class="st0" cx="62.5" cy="3.9" r="1.8"/>
</g>
<g>
	<polygon class="st1" points="1,31 1,0 0,0 0,32 32,32 32,31 	"/>
	<circle class="st1" cx="6.2" cy="26.2" r="1.8"/>
	<circle class="st1" cx="9.1" cy="21.4" r="1.8"/>
	<circle class="st1" cx="9.1" cy="7.4" r="1.8"/>
	<circle class="st1" cx="5.1" cy="13.4" r="1.8"/>
	<circle class="st1" cx="21.1" cy="19.4" r="1.8"/>
	<circle class="st1" cx="25.1" cy="25.4" r="1.8"/>
	<circle class="st1" cx="15" cy="23.2" r="1.8"/>
	<circle class="st1" cx="18.7" cy="14.8" r="1.8"/>
	<circle class="st1" cx="18.7" cy="8.8" r="1.8"/>
	<circle class="st1" cx="25.8" cy="10.6" r="1.8"/>
	<circle class="st1" cx="29.5" cy="3.9" r="1.8"/>
</g>
</svg>
