<?xml version="1.0" encoding="utf-8"?>
<!-- Generator: Adobe Illustrator 20.0.0, SVG Export Plug-In . SVG Version: 6.00 Build 0)  -->
<svg version="1.1" id="Layer_1" xmlns="http://www.w3.org/2000/svg" xmlns:xlink="http://www.w3.org/1999/xlink" x="0px" y="0px"
	 viewBox="0 0 65 32" style="enable-background:new 0 0 65 32;" xml:space="preserve">
<style type="text/css">
	.st0{fill:#005DA6;}
	.st1{fill:#666666;}
</style>
<g>
	<polygon class="st0" points="1,31 1,28 6,28 6,22 1,22 1,19 15,19 15,13 1,13 1,10 9,10 9,4 1,4 1,0 0,0 0,32 32,32 32,31 	"/>
	<rect x="11" y="4" class="st0" width="10" height="6"/>
	<rect x="17" y="13" class="st0" width="11" height="6"/>
	<rect x="8" y="22" class="st0" width="11" height="6"/>
</g>
<g>
	<polygon class="st1" points="34,31 34,28 39,28 39,22 34,22 34,19 48,19 48,13 34,13 34,10 42,10 42,4 34,4 34,0 33,0 33,32 65,32 
		65,31 	"/>
	<rect x="44" y="4" class="st1" width="10" height="6"/>
	<rect x="50" y="13" class="st1" width="11" height="6"/>
	<rect x="41" y="22" class="st1" width="11" height="6"/>
</g>
</svg>
