<?xml version="1.0" encoding="utf-8"?>
<!-- Generator: Adobe Illustrator 20.0.0, SVG Export Plug-In . SVG Version: 6.00 Build 0)  -->
<svg version="1.1" id="Layer_1" xmlns="http://www.w3.org/2000/svg" xmlns:xlink="http://www.w3.org/1999/xlink" x="0px" y="0px"
	 viewBox="0 0 65 32" style="enable-background:new 0 0 65 32;" xml:space="preserve">
<style type="text/css">
	.st0{fill:#005DA6;}
	.st1{fill:#666666;}
</style>
<path class="st0" d="M0,0v32h32V0H0z M20,12h-8V7h8V12z M20,13v5h-8v-5H20z M11,12H2V7h9V12z M11,13v5H2v-5H11z M11,19v5H2v-5H11z
	 M12,19h8v5h-8V19z M21,19h9v5h-9V19z M21,18v-5h9v5H21z M21,12V7h9v5H21z M2,30v-5h9v5H2z M12,30v-5h8v5H12z M21,30v-5h9v5H21z"/>
<path class="st1" d="M33,0v32h32V0H33z M63,18h-9v-5h9V18z M45,24v-5h8v5H45z M53,25v5h-8v-5H53z M53,12h-8V7h8V12z M35,7h9v5h-9V7z
	 M35,13h9v5h-9V13z M35,19h9v5h-9V19z M45,18v-5h8v5H45z M63,12h-9V7h9V12z M35,25h9v5h-9V25z M63,30h-9v-5h9V30z M54,24v-5h9v5H54z
	"/>
</svg>
